<?xml version="1.0" encoding="utf-8"?>
<!-- Generator: Adobe Illustrator 21.1.0, SVG Export Plug-In . SVG Version: 6.00 Build 0)  -->
<svg version="1.1" id="Camada_1" xmlns="http://www.w3.org/2000/svg" xmlns:xlink="http://www.w3.org/1999/xlink" x="0px" y="0px"
	 viewBox="0 0 800 350" style="enable-background:new 0 0 800 350;" xml:space="preserve">
<style type="text/css">
	.st0{fill:#4BBCCE;}
	.st1{fill:#142C46;}
</style>
<g>
	<g>
		<g>
			<g>
				<path class="st0" d="M134,221.4l-28.3,30.1c-2.7,2.9-7.1,2.9-9.8,0l-71.2-75.7c-21-22.3-21-58.6,0-80.9L96,19.2
					c2.7-2.9,7.1-2.9,9.8,0L134,49.2c2.7,2.9,2.7,7.5,0,10.4l-52.2,55.5c-10.5,11.2-10.5,29.3,0,40.5l52.2,55.5
					C136.7,213.9,136.7,218.6,134,221.4z"/>
			</g>
			<g>
				<path class="st0" d="M253,256.7l-71.2,75.7c-2.7,2.9-7.1,2.9-9.8,0l-28.3-30.1c-2.7-2.9-2.7-7.5,0-10.4l52.2-55.5
					c10.5-11.2,10.5-29.3,0-40.5l-52.2-55.5c-2.7-2.9-2.7-7.5,0-10.4l28.3-30.1c2.7-2.9,7.1-2.9,9.8,0l71.2,75.7
					C274,198.1,274,234.4,253,256.7z"/>
			</g>
		</g>
	</g>
	<g>
		<g>
			<path class="st1" d="M308.2,188.3c4.6,3.7,8.9,5.6,13,5.6c1.9,0,3.4-0.5,4.6-1.4c1.1-0.9,1.7-2.1,1.7-3.6c0-1-0.4-1.9-1.2-2.8
				c-0.8-0.9-1.8-1.6-3.1-2.2c-1.3-0.6-2.7-1.3-4.3-2c-1.6-0.7-3.3-1.5-5-2.2c-1.7-0.7-3.4-1.6-5-2.7c-1.6-1.1-3.1-2.3-4.3-3.6
				c-1.3-1.3-2.3-2.9-3.1-4.9c-0.8-1.9-1.2-4.1-1.2-6.4c0-5.4,2-9.7,5.9-13.1c4.1-3.4,9.1-5.1,15.1-5.1c7.6,0,13.8,2.4,18.9,7.3
				c0.9,1,0.9,2-0.2,3l-5.6,6.3c-0.6,0.7-1.6,0.7-3,0.1c-3.4-2.1-6.7-3.2-9.8-3.2c-1.7,0-3.1,0.4-4.2,1.2c-1.1,0.8-1.7,1.9-1.7,3.2
				c0,1.1,0.8,2.2,2.4,3.2c1.6,1,4,2.1,7.1,3.4c1.7,0.6,3.3,1.2,4.8,1.9c1.5,0.7,3.1,1.7,4.7,2.8c1.7,1.2,3.1,2.4,4.2,3.8
				c1.2,1.4,2.1,3,2.9,5c0.7,1.9,1.1,4.1,1.1,6.3c0,5.4-2.1,9.9-6.2,13.7c-4.1,3.7-9.4,5.5-16.1,5.5c-8.6,0-15.8-3.2-21.6-9.6
				c-0.9-1.1-0.8-2.2,0.4-3.5l5.3-6C305.8,187.4,306.9,187.3,308.2,188.3z"/>
			<path class="st1" d="M349.5,198.2c-5.8-6.2-8.6-13.7-8.6-22.5c0-8.8,2.9-16.2,8.6-22.5c5.7-6.2,12.7-9.2,21-9.2
				c8.3,0,15.3,3.1,20.9,9.2c5.8,6.2,8.6,13.7,8.6,22.5c0,8.8-2.9,16.3-8.6,22.5c-5.6,6.2-12.5,9.2-20.9,9.2
				C362.2,207.5,355.1,204.4,349.5,198.2z M370.5,190.4c3.7,0,6.8-1.4,9.3-4.2c2.5-2.8,3.8-6.3,3.8-10.4c0-4.1-1.3-7.6-3.8-10.4
				c-2.5-2.8-5.6-4.2-9.3-4.2c-3.7,0-6.9,1.4-9.4,4.2c-2.5,2.8-3.8,6.3-3.8,10.4c0,4.1,1.3,7.6,3.8,10.4
				C363.6,189,366.8,190.4,370.5,190.4z"/>
			<path class="st1" d="M403.4,148.9c6.4-3.3,14-5,22.8-5c11.4,0,19.3,3,23.5,8.9c2,2.8,3.5,5.9,4.3,9.4c0.9,3.4,1.3,7.5,1.3,12.3
				v29.5c0,1.5-0.7,2.2-2.1,2.2h-12c-1.4,0-2.1-0.7-2.1-2.2v-3.9c-2.2,2.3-5.3,4.1-9.1,5.3c-3.8,1.2-7.8,1.9-11.8,2
				c-5.3,0.1-10-1.3-14.1-4.1c-3.9-2.9-5.8-7.6-5.7-14c0.1-13.2,12.2-19.9,36.2-19.9l3.7,0.1V169c0-2.8-1-5.1-3.1-6.9
				c-2.1-1.8-5.6-2.6-10.4-2.6c-4.1,0-8.7,0.8-13.9,2.3l-2.4,0.7c-1.3,0.5-2.2,0.1-2.6-1.3l-3.3-9.1
				C401.9,150.5,402.2,149.5,403.4,148.9z M438.7,185.9v-6h-1.6c-7.1,0-12.4,0.7-15.8,2c-3.4,1.3-5.1,3.6-5.1,6.9
				c0,4.8,3.1,7.2,9.3,7.2c3.7,0,6.8-1,9.3-3C437.4,190.9,438.7,188.5,438.7,185.9z"/>
			<path class="st1" d="M459.2,145.2h13c1.3,0,2,0.7,2,2.1v7.7h0.1c1.2-3,3.2-5.6,5.9-7.8c2.7-2.1,5.6-3.2,8.6-3.2
				c3.7,0,6.6,0.7,8.8,2c0.8,0.5,1,1.5,0.6,3.1l-3.3,12.5c-0.6,1.2-1.5,1.5-2.7,0.9c-1.7-0.7-3.4-1-5.2-1c-3.7,0-6.7,1.5-9.1,4.6
				c-2.4,3.1-3.6,7.1-3.6,12.1v25.9c0,1.4-0.7,2.1-2,2.1h-13c-1.3,0-2-0.7-2-2.1v-56.9C457.2,145.9,457.9,145.2,459.2,145.2z"/>
			<path class="st1" d="M522.5,192.4c4.5,0,8.8-1.1,13-3.2c1.2-0.6,2.1-0.3,2.9,0.7l5.8,8.7c0.7,1.2,0.5,2.2-0.6,2.8
				c-6.3,4.1-13.5,6.2-21.6,6.2c-8.2,0-15.1-3.1-20.9-9.2c-5.8-6.2-8.8-13.7-8.8-22.5c0-8.6,2.6-16.1,7.9-22.3
				c5.4-6.3,12.1-9.5,20.3-9.5c8.8,0,15.7,3.3,20.8,10c5.2,6.7,7.8,14.8,7.8,24.5c0,1.5-0.7,2.2-2.2,2.2h-38.7
				c0.7,3.5,2.4,6.3,5,8.5C515.7,191.3,518.8,192.4,522.5,192.4z M508.3,169.9h24.5c-0.7-3.8-2.1-6.8-4.2-8.9
				c-2.1-2.1-4.8-3.2-8.2-3.2c-3.2,0-5.9,1.1-8,3.3C510.2,163.3,508.8,166.2,508.3,169.9z"/>
			<path class="st1" d="M555.8,188.3c4.6,3.7,8.9,5.6,13,5.6c1.9,0,3.4-0.5,4.6-1.4c1.1-0.9,1.7-2.1,1.7-3.6c0-1-0.4-1.9-1.2-2.8
				c-0.8-0.9-1.8-1.6-3.1-2.2c-1.3-0.6-2.7-1.3-4.3-2c-1.6-0.7-3.3-1.5-5-2.2c-1.7-0.7-3.4-1.6-5-2.7c-1.6-1.1-3.1-2.3-4.3-3.6
				c-1.3-1.3-2.3-2.9-3.1-4.9c-0.8-1.9-1.2-4.1-1.2-6.4c0-5.4,2-9.7,5.9-13.1c4.1-3.4,9.1-5.1,15.1-5.1c7.6,0,13.8,2.4,18.9,7.3
				c0.9,1,0.9,2-0.2,3l-5.6,6.3c-0.6,0.7-1.6,0.7-3,0.1c-3.4-2.1-6.7-3.2-9.8-3.2c-1.7,0-3.1,0.4-4.2,1.2c-1.1,0.8-1.7,1.9-1.7,3.2
				c0,1.1,0.8,2.2,2.4,3.2c1.6,1,4,2.1,7.1,3.4c1.7,0.6,3.3,1.2,4.8,1.9c1.5,0.7,3.1,1.7,4.7,2.8c1.7,1.2,3.1,2.4,4.2,3.8
				c1.2,1.4,2.1,3,2.9,5c0.7,1.9,1.1,4.1,1.1,6.3c0,5.4-2.1,9.9-6.2,13.7c-4.1,3.7-9.4,5.5-16.1,5.5c-8.6,0-15.8-3.2-21.6-9.6
				c-0.9-1.1-0.8-2.2,0.4-3.5l5.3-6C553.4,187.4,554.5,187.3,555.8,188.3z"/>
		</g>
		<g>
			<path class="st1" d="M677.8,206.3H665c-1.4,0-2.1-0.7-2.1-2.1V198c-4.4,6.3-10.2,9.5-17.4,9.5c-7.5,0-13.6-3-18.3-9.1
				c-4.8-6.2-7.1-13.8-7.1-22.6c0-8.9,2.4-16.4,7.1-22.5c4.7-6.2,10.8-9.2,18.3-9.2c7.4,0,13.3,3.1,17.4,9.4v-36.6
				c0-1.4,0.7-2.1,2.1-2.1h12.8c1.3,0,2,0.7,2,2.1v87.5C679.8,205.6,679.1,206.3,677.8,206.3z M637,175.7c0,4.1,1.3,7.6,3.8,10.4
				c2.5,2.8,5.6,4.2,9.3,4.2s6.8-1.4,9.3-4.2c2.5-2.8,3.8-6.3,3.8-10.4c0-4.1-1.3-7.6-3.8-10.4c-2.6-2.9-5.7-4.3-9.3-4.3
				s-6.7,1.4-9.3,4.3C638.3,168.2,637,171.6,637,175.7z"/>
			<path class="st1" d="M712.1,192.4c4.5,0,8.8-1.1,13-3.2c1.2-0.6,2.1-0.3,2.9,0.7l5.8,8.7c0.7,1.2,0.5,2.2-0.6,2.8
				c-6.3,4.1-13.5,6.2-21.6,6.2c-8.2,0-15.1-3.1-20.9-9.2c-5.8-6.2-8.8-13.7-8.8-22.5c0-8.6,2.6-16.1,7.9-22.3
				c5.4-6.3,12.1-9.5,20.3-9.5c8.8,0,15.7,3.3,20.8,10c5.2,6.7,7.8,14.8,7.8,24.5c0,1.5-0.7,2.2-2.2,2.2h-38.7
				c0.7,3.5,2.4,6.3,5,8.5C705.3,191.3,708.4,192.4,712.1,192.4z M697.9,169.9h24.5c-0.7-3.8-2.1-6.8-4.2-8.9
				c-2.1-2.1-4.8-3.2-8.2-3.2c-3.2,0-5.9,1.1-8,3.3C699.8,163.3,698.5,166.2,697.9,169.9z"/>
			<path class="st1" d="M761.1,181.9l11.7-34.7c0.7-1.4,1.4-2.1,2.3-2.1h13.5c0.5,0,0.9,0.2,1.2,0.7c0.3,0.4,0.3,0.9,0.1,1.4
				L770.5,204c-0.5,1.6-1.3,2.3-2.4,2.3H754c-1.1,0-1.9-0.8-2.4-2.3l-19.2-56.7c-0.6-1.4-0.1-2.1,1.3-2.1H747c0.9,0,1.7,0.7,2.2,2.1
				L761.1,181.9z"/>
		</g>
		<g>
			<g>
				<path class="st0" d="M558.1,220l43.9-80.4c0.9-1.7,1.9-2.6,3.1-2.6h13c0.9,0,1.5,0.2,1.8,0.7c0.3,0.5,0.2,1.1-0.2,1.9L575.8,220
					c-0.9,1.7-1.9,2.6-3.1,2.6h-13c-0.9,0-1.5-0.2-1.8-0.7C557.6,221.4,557.7,220.8,558.1,220z"/>
			</g>
		</g>
	</g>
</g>
</svg>
